<?xml version="1.0" standalone="no"?>
<!DOCTYPE svg PUBLIC "-//W3C//DTD SVG 20010904//EN"
 "http://www.w3.org/TR/2001/REC-SVG-20010904/DTD/svg10.dtd">
<svg version="1.0" xmlns="http://www.w3.org/2000/svg"
 width="260.000000pt" height="260.000000pt" viewBox="0 0 260.000000 260.000000"
 preserveAspectRatio="xMidYMid meet">
<metadata>
Created by potrace 1.11, written by Peter Selinger 2001-2013
</metadata>
<g transform="translate(0.000000,260.000000) scale(0.100000,-0.100000)"
fill="#000000" stroke="none">
<path d="M800 2320 l0 -250 250 0 250 0 0 250 0 250 -250 0 -250 0 0 -250z"/>
<path d="M1310 2320 l0 -250 250 0 250 0 0 250 0 250 -250 0 -250 0 0 -250z"/>
<path d="M790 1810 l0 -250 250 0 250 0 0 250 0 250 -250 0 -250 0 0 -250z"/>
<path d="M807 1543 c-4 -3 -7 -116 -7 -250 l0 -243 250 0 250 0 0 250 0 250
-243 0 c-134 0 -247 -3 -250 -7z"/>
<path d="M1310 1300 l0 -250 250 0 250 0 0 250 0 250 -250 0 -250 0 0 -250z"/>
<path d="M1820 1300 l0 -250 250 0 250 0 0 250 0 250 -250 0 -250 0 0 -250z"/>
<path d="M1810 790 l0 -250 250 0 250 0 0 250 0 250 -250 0 -250 0 0 -250z"/>
<path d="M280 280 l0 -250 250 0 250 0 0 250 0 250 -250 0 -250 0 0 -250z"/>
<path d="M800 280 l0 -250 500 0 500 0 0 250 0 250 -500 0 -500 0 0 -250z"/>
<path d="M1817 523 c-4 -3 -7 -116 -7 -250 l0 -243 250 0 250 0 0 250 0 250
-243 0 c-134 0 -247 -3 -250 -7z"/>
</g>
</svg>
